<svg width="950" height="250" viewBox="0 0 950 250" fill="none" xmlns="http://www.w3.org/2000/svg">
<path d="M321.01 81.9449V170.008H312.04V128.811H263.477V170.008H254.508V81.9449H263.477V121.504H312.04V81.9449H321.01Z" fill="#0D166E"/>
<path d="M403.492 132.087C403.492 135.11 403.406 137.42 403.235 139.016H345.19C345.447 144.223 346.728 148.675 349.034 152.37C351.341 156.066 354.373 158.879 358.132 160.811C361.891 162.659 365.991 163.583 370.433 163.583C376.242 163.583 381.111 162.197 385.04 159.425C389.055 156.654 391.703 152.916 392.985 148.213H402.467C400.758 154.932 397.085 160.433 391.447 164.717C385.894 168.916 378.89 171.016 370.433 171.016C363.855 171.016 357.961 169.588 352.75 166.732C347.539 163.793 343.439 159.677 340.449 154.386C337.545 149.011 336.093 142.753 336.093 135.614C336.093 128.475 337.545 122.218 340.449 116.843C343.354 111.467 347.411 107.352 352.622 104.496C357.833 101.64 363.77 100.213 370.433 100.213C377.096 100.213 382.905 101.64 387.859 104.496C392.899 107.352 396.743 111.215 399.391 116.087C402.125 120.874 403.492 126.207 403.492 132.087ZM394.394 131.835C394.479 126.711 393.412 122.344 391.191 118.732C389.055 115.121 386.108 112.391 382.349 110.543C378.591 108.696 374.49 107.772 370.048 107.772C363.385 107.772 357.705 109.871 353.006 114.071C348.308 118.27 345.703 124.192 345.19 131.835H394.394Z" fill="#0D166E"/>
<path d="M414.52 135.488C414.52 128.433 415.93 122.26 418.749 116.969C421.653 111.593 425.625 107.478 430.665 104.622C435.791 101.682 441.557 100.213 447.963 100.213C454.626 100.213 460.35 101.724 465.134 104.748C470.003 107.772 473.505 111.635 475.641 116.339V101.22H484.61V170.008H475.641V154.764C473.42 159.467 469.875 163.373 465.005 166.48C460.222 169.504 454.498 171.016 447.835 171.016C441.514 171.016 435.791 169.546 430.665 166.606C425.625 163.667 421.653 159.509 418.749 154.134C415.93 148.759 414.52 142.543 414.52 135.488ZM475.641 135.614C475.641 130.071 474.487 125.199 472.181 121C469.875 116.801 466.714 113.567 462.699 111.299C458.769 109.032 454.413 107.898 449.629 107.898C444.675 107.898 440.233 108.99 436.303 111.173C432.374 113.357 429.256 116.549 426.949 120.748C424.728 124.864 423.618 129.777 423.618 135.488C423.618 141.115 424.728 146.071 426.949 150.354C429.256 154.554 432.374 157.787 436.303 160.055C440.233 162.239 444.675 163.331 449.629 163.331C454.413 163.331 458.769 162.197 462.699 159.929C466.714 157.661 469.875 154.428 472.181 150.228C474.487 146.029 475.641 141.157 475.641 135.614Z" fill="#0D166E"/>
<path d="M512.775 76.7795V170.008H503.805V76.7795H512.775Z" fill="#0D166E"/>
<path d="M543.465 108.654V151.362C543.465 155.562 544.277 158.459 545.9 160.055C547.523 161.651 550.384 162.449 554.485 162.449H562.685V170.008H553.075C546.754 170.008 542.055 168.58 538.98 165.724C535.905 162.785 534.367 157.997 534.367 151.362V108.654H524.629V101.22H534.367V83.9606H543.465V101.22H562.685V108.654H543.465Z" fill="#0D166E"/>
<path d="M609.511 99.9606C614.808 99.9606 619.549 101.053 623.734 103.236C628.006 105.42 631.337 108.78 633.729 113.315C636.206 117.766 637.445 123.226 637.445 129.693V170.008H628.604V130.701C628.604 123.226 626.682 117.514 622.838 113.567C619.079 109.619 613.911 107.646 607.333 107.646C600.585 107.646 595.203 109.745 591.188 113.945C587.173 118.144 585.166 124.318 585.166 132.465V170.008H576.196V76.7795H585.166V112.937C587.387 108.822 590.633 105.63 594.904 103.362C599.261 101.094 604.13 99.9606 609.511 99.9606Z" fill="#0D166E"/>
<path d="M708.009 170.008L675.463 130.827V170.008H657.524V82.0709H675.463V121.504L708.009 82.0709H729.664L692.761 125.661L730.689 170.008H708.009Z" fill="#0D166E"/>
<path d="M805.915 133.598C805.915 136.118 805.744 138.386 805.403 140.402H753.508C753.935 145.441 755.729 149.388 758.89 152.244C762.05 155.1 765.937 156.528 770.55 156.528C777.213 156.528 781.954 153.714 784.773 148.087H804.121C802.071 154.806 798.142 160.349 792.333 164.717C786.524 169 779.391 171.142 770.934 171.142C764.101 171.142 757.95 169.672 752.483 166.732C747.101 163.709 742.873 159.467 739.798 154.008C736.808 148.549 735.313 142.249 735.313 135.11C735.313 127.887 736.808 121.546 739.798 116.087C742.787 110.627 746.973 106.428 752.355 103.488C757.737 100.549 763.93 99.0787 770.934 99.0787C777.683 99.0787 783.705 100.507 789.001 103.362C794.383 106.218 798.526 110.291 801.431 115.583C804.42 120.79 805.915 126.795 805.915 133.598ZM787.336 128.559C787.25 124.024 785.585 120.412 782.338 117.724C779.092 114.953 775.12 113.567 770.422 113.567C765.98 113.567 762.221 114.911 759.146 117.598C756.156 120.202 754.32 123.856 753.636 128.559H787.336Z" fill="#0D166E"/>
<path d="M884.358 100.213L840.408 203.016H821.315L836.692 168.244L808.246 100.213H828.363L846.686 148.968L865.266 100.213H884.358Z" fill="#0D166E"/>
<path d="M142.145 146.675L131.301 126.357C135.337 124.464 138.141 120.468 138.141 115.803C138.141 109.317 132.761 104.063 126.13 104.063C119.5 104.063 114.12 109.322 114.12 115.803C114.12 120.468 116.929 124.464 120.96 126.357L110.116 146.675H142.15H142.145Z" fill="#88E8FF"/>
<path d="M132.139 79.4567C132.139 82.7182 129.45 85.3622 126.133 85.3622C122.816 85.3622 120.126 82.7182 120.126 79.4567C120.126 76.1952 122.816 73.5512 126.133 73.5512C129.45 73.5512 132.139 76.1952 132.139 79.4567Z" fill="#7489F0"/>
<path d="M182.192 79.4567C182.192 84.8926 177.71 89.2992 172.181 89.2992C166.653 89.2992 162.171 84.8926 162.171 79.4567C162.171 74.0208 166.653 69.6142 172.181 69.6142C177.71 69.6142 182.192 74.0208 182.192 79.4567Z" fill="#91A4F7"/>
<path d="M182.192 171.976C182.192 177.412 177.71 181.819 172.181 181.819C166.653 181.819 162.171 177.412 162.171 171.976C162.171 166.54 166.653 162.134 172.181 162.134C177.71 162.134 182.192 166.54 182.192 171.976Z" fill="#B7C4FC"/>
<path d="M88.0928 171.976C88.0928 176.869 84.0591 180.835 79.0833 180.835C74.1075 180.835 70.0738 176.869 70.0738 171.976C70.0738 167.084 74.1075 163.118 79.0833 163.118C84.0591 163.118 88.0928 167.084 88.0928 171.976Z" fill="#4860E6"/>
<path d="M92.097 125.717C92.097 132.783 86.2705 138.512 79.0833 138.512C71.896 138.512 66.0696 132.783 66.0696 125.717C66.0696 118.65 71.896 112.921 79.0833 112.921C86.2705 112.921 92.097 118.65 92.097 125.717Z" fill="#7489F0"/>
<path d="M156.164 125.688L171.737 110.376L187.31 125.688L171.737 140.999L156.164 125.688Z" fill="#4860E6"/>
<path d="M66.0696 79.4567L78.8109 66.9292L91.5522 79.4567L78.8109 91.9842L66.0696 79.4567Z" fill="#B7C4FC"/>
<path d="M115.121 172.285L126.447 161.15L137.772 172.285L126.447 183.421L115.121 172.285Z" fill="#4860E6"/>
</svg>
